<svg width="100" height="100" viewBox="0 0 100 100" fill="none" xmlns="http://www.w3.org/2000/svg">
<path d="M21.3877 62.0142L22.2959 61.5435L22.3066 61.5386C22.7493 61.2978 23.2052 61.008 23.4346 60.5728C23.6984 60.0721 23.5937 59.5429 23.3223 59.0229C23.0563 58.5136 22.5784 57.9066 21.8965 57.1519C21.2074 56.3892 20.277 55.4405 19.0781 54.2417L15.0771 50.2407L21.3682 43.8892C25.0363 40.1896 32.9981 32.1033 39.0479 25.9282C42.0716 22.8574 44.8523 20.0613 46.8955 18.0337C47.9174 17.0196 48.7534 16.1993 49.3428 15.6333C49.6034 15.383 49.8143 15.1859 49.9697 15.0435C49.9768 15.0495 49.9848 15.0547 49.9922 15.061C50.2001 15.2387 50.4876 15.5007 50.8359 15.8315C51.5309 16.4916 52.4503 17.4039 53.4355 18.4048C55.3922 20.4557 63.1926 28.4439 70.8018 36.147C74.5933 40.0168 78.0552 43.5653 80.5771 46.1655C81.8385 47.466 82.8645 48.529 83.5781 49.2759C83.935 49.6494 84.2127 49.9421 84.4023 50.146C84.4133 50.1578 84.4233 50.17 84.4336 50.1812C84.4196 50.1993 84.4055 50.2196 84.3896 50.2397C84.2003 50.4796 83.9124 50.8139 83.5449 51.2222C82.8119 52.0367 81.784 53.1198 80.6436 54.2759V54.2769C79.4804 55.4401 78.417 56.5485 77.6357 57.4009C77.2454 57.8268 76.9224 58.1927 76.6904 58.4702C76.5752 58.6081 76.4772 58.7298 76.4043 58.8296C76.3681 58.8791 76.3331 58.9305 76.3037 58.979C76.2829 59.0133 76.2325 59.0968 76.207 59.1987L76.2051 59.2085C76.0644 59.8184 76.2812 60.4181 76.627 60.8452C76.9718 61.2711 77.509 61.6049 78.1191 61.605C78.4303 61.605 78.7357 61.4608 79.0234 61.2778C79.3261 61.0854 79.6904 60.7964 80.1367 60.4019C81.0314 59.611 82.3218 58.336 84.2168 56.394L85.3428 55.2329C86.4034 54.1258 87.2661 53.1824 87.9121 52.4292C88.342 51.928 88.6822 51.503 88.9219 51.1655C89.0414 50.9973 89.1425 50.8424 89.2178 50.7046C89.2831 50.5849 89.3582 50.4263 89.3818 50.2603H89.3828C89.383 50.259 89.3826 50.2576 89.3828 50.2563C89.3832 50.2534 89.3844 50.2505 89.3848 50.2476H89.3828C89.4115 50.0346 89.3593 49.8342 89.2861 49.6616C89.2104 49.4831 89.0939 49.2892 88.9434 49.0757C88.6418 48.6481 88.1499 48.0648 87.4033 47.2495C85.9055 45.6138 83.3179 42.9737 79.0107 38.6353L79.0117 38.6343C73.3394 32.8993 65.2533 24.6896 61.0537 20.396L61.0547 20.395C56.074 15.2734 53.5047 12.6417 52.123 11.2915C51.4379 10.622 51.0221 10.2439 50.7393 10.0347C50.5954 9.92829 50.4596 9.84572 50.3193 9.79346C50.1632 9.73531 50.0351 9.72803 49.9404 9.72803C49.7961 9.72809 49.6866 9.78569 49.667 9.79541C49.6244 9.8165 49.5856 9.83968 49.5566 9.85889C49.4974 9.89825 49.4313 9.94894 49.3633 10.0034C49.2247 10.1145 49.0417 10.2724 48.8242 10.4673C48.3875 10.8587 47.7869 11.4208 47.0684 12.1099C45.6298 13.4894 43.7062 15.3898 41.6504 17.4771C25.3541 34.0084 17.4424 42.0299 13.6572 46.0034C11.7765 47.9777 10.8835 48.9835 10.4932 49.5454C10.3106 49.8082 10.1557 50.0846 10.1611 50.3794C10.1643 50.5472 10.2179 50.6763 10.2686 50.7671C10.2908 50.8069 10.3132 50.8427 10.3252 50.8608C10.3399 50.8831 10.3455 50.89 10.3496 50.897H10.3506C10.405 50.9929 10.4887 51.1006 10.5576 51.1851C10.6506 51.299 10.7743 51.4419 10.9219 51.6089C11.218 51.9438 11.6243 52.3882 12.1094 52.9087C12.5948 53.4295 13.1616 54.0291 13.7793 54.6772L15.7559 56.7358L20.7393 61.9067L21.0234 62.2017L21.3877 62.0142Z" fill="white" stroke="white" stroke-width="1.0988"/>
<path d="M49.8643 90.5317C50.0968 90.5759 50.3075 90.5375 50.4902 90.436L50.4893 90.4351C50.5733 90.3888 50.6631 90.3195 50.7344 90.2612C50.8175 90.1933 50.9174 90.1065 51.0312 90.0044C51.2597 89.7995 51.5582 89.5201 51.9141 89.1792C52.6267 88.4965 53.5822 87.5555 54.6953 86.4438C56.9224 84.2197 59.7891 81.3044 62.623 78.3882C65.4569 75.472 68.2605 72.553 70.3623 70.3208C71.4128 69.2051 72.2902 68.2584 72.9092 67.5688C73.2179 67.2249 73.4662 66.9404 73.6406 66.729C73.7271 66.6242 73.8011 66.53 73.8564 66.4526C73.8837 66.4146 73.9128 66.3724 73.9375 66.3296C73.9482 66.311 73.9914 66.2339 74.0146 66.1313H74.0166C74.0182 66.1246 74.0182 66.1176 74.0195 66.1108C74.0211 66.1026 74.0242 66.094 74.0254 66.0854H74.0234C74.0724 65.798 73.9634 65.5196 73.8633 65.3218C73.7435 65.0853 73.5604 64.8157 73.3281 64.5161C72.8612 63.914 72.1364 63.1204 71.1455 62.1138L71.1465 62.1128C70.3673 61.318 69.6606 60.5646 69.1514 59.9897C68.8962 59.7017 68.6958 59.4643 68.5615 59.2915C68.5539 59.2817 68.547 59.2713 68.54 59.2622C68.5579 59.2378 68.5758 59.2099 68.5977 59.1812C68.7537 58.976 68.9858 58.695 69.2803 58.356C69.7209 57.8487 70.2904 57.2237 70.9287 56.5483L71.5879 55.8579L71.5908 55.855C72.5375 54.8609 73.3706 53.9258 73.9697 53.1909C74.2684 52.8246 74.5162 52.5 74.6914 52.2388C74.7784 52.109 74.8545 51.9843 74.9111 51.8716C74.9549 51.7846 75.0341 51.6175 75.0342 51.4331C75.0342 51.1558 74.9373 50.8843 74.8242 50.6606C74.7072 50.4291 74.5492 50.2039 74.377 50.0063C74.2052 49.8094 74.0065 49.625 73.7979 49.4858C73.6028 49.3558 73.3359 49.2223 73.043 49.2222C72.9337 49.2222 72.8492 49.2542 72.8193 49.2661C72.7794 49.2821 72.7461 49.3006 72.7227 49.314C72.6751 49.3411 72.6278 49.3731 72.5869 49.4028C72.503 49.4639 72.4003 49.5466 72.2861 49.6431C72.0556 49.8379 71.7472 50.1148 71.3848 50.4497C70.6582 51.121 69.6979 52.042 68.6768 53.0474L65.3682 56.356L58.3281 49.1372H58.3271C55.7253 46.4727 53.814 44.5608 52.4922 43.3179C51.8328 42.6978 51.3102 42.235 50.917 41.9263C50.7215 41.7728 50.5453 41.6469 50.3916 41.5581C50.3148 41.5138 50.2322 41.4719 50.1475 41.4409C50.0762 41.4149 49.9702 41.3865 49.8477 41.3882V41.3862C49.8418 41.3862 49.8359 41.388 49.8301 41.3882C49.824 41.3884 49.8177 41.3868 49.8115 41.3872V41.3892C49.6919 41.3954 49.5898 41.429 49.5234 41.4565C49.4421 41.4903 49.3611 41.5346 49.2842 41.5815C49.1301 41.6756 48.9498 41.8075 48.748 41.9683C48.3423 42.2916 47.804 42.77 47.1328 43.3999C45.7876 44.6623 43.876 46.5657 41.3672 49.1372L34.3564 56.3267L31.0518 53.0493C30.044 52.0416 29.0743 51.1187 28.3301 50.4458C27.9586 50.1099 27.6379 49.8314 27.3955 49.6353C27.2757 49.5383 27.1669 49.4549 27.0762 49.3931C27.0316 49.3627 26.9805 49.3301 26.9287 49.3032C26.9028 49.2898 26.8673 49.2728 26.8262 49.2583C26.7915 49.2461 26.7165 49.2222 26.6211 49.2222C26.3317 49.2222 26.0694 49.3342 25.8613 49.4683C25.6491 49.6051 25.4574 49.788 25.2969 49.9868C24.9867 50.3711 24.7236 50.905 24.7236 51.4331C24.7237 51.6006 24.7786 51.7535 24.8281 51.8657C24.8818 51.9874 24.9542 52.1154 25.0381 52.2456C25.2064 52.5066 25.448 52.8211 25.75 53.1812C26.3559 53.9034 27.2454 54.8561 28.3926 56.019L28.3955 56.022L31.5479 59.1753L28.8652 61.8579L28.8623 61.8618C27.9638 62.7761 27.1926 63.6107 26.6426 64.269C26.3686 64.597 26.1411 64.8906 25.9795 65.1343C25.8991 65.2555 25.8277 65.3752 25.7744 65.4878C25.7287 65.5845 25.6641 65.7409 25.6641 65.9146C25.6641 66.0307 25.6985 66.1239 25.7158 66.1675C25.737 66.2208 25.7624 66.2705 25.7861 66.312C25.834 66.3956 25.898 66.4879 25.9688 66.5845C26.1118 66.7797 26.3172 67.0339 26.5781 67.3394C27.1018 67.9525 27.8732 68.805 28.8721 69.8745C30.8714 72.0152 33.7988 75.0443 37.5146 78.8071C42.807 84.1935 45.7549 87.1656 47.4502 88.7505C48.2913 89.5368 48.8548 90.0101 49.2568 90.2651C49.4578 90.3926 49.6589 90.4927 49.8643 90.5317ZM49.9453 85.4165C49.7835 85.2708 49.5554 85.0573 49.2686 84.7827C48.6956 84.2343 47.9003 83.455 46.957 82.52C45.0711 80.6507 42.5993 78.1653 40.1416 75.6724C37.684 73.1796 35.2422 70.6804 33.415 68.7837C32.5013 67.8352 31.7428 67.039 31.2139 66.4702C30.975 66.2134 30.7854 66.0052 30.6504 65.8521C30.7481 65.7303 30.8774 65.576 31.0361 65.397C31.4269 64.9565 31.968 64.385 32.5576 63.7954L34.3613 61.9917L37.3271 64.9839L37.3291 64.9858C38.2602 65.9169 39.1631 66.7651 39.877 67.3833C40.2326 67.6913 40.5487 67.9489 40.8018 68.1323C40.9273 68.2232 41.048 68.3038 41.1562 68.3638C41.2102 68.3937 41.2708 68.4238 41.334 68.4478C41.3894 68.4687 41.4871 68.5004 41.6035 68.5005L41.8057 68.4868C42.2708 68.4238 42.703 68.1536 43.0137 67.8511C43.3678 67.5062 43.6895 66.9972 43.6895 66.4468C43.6894 66.3249 43.6528 66.2246 43.6328 66.1743C43.6086 66.1136 43.5783 66.0552 43.5488 66.0034C43.4895 65.8992 43.4108 65.7808 43.3203 65.6567C43.1379 65.4065 42.8803 65.0906 42.5723 64.7329C41.9544 64.0154 41.1071 63.1036 40.1748 62.1714L37.2041 59.2026L43.4072 52.8511H43.4082C45.2094 51.0029 46.8685 49.3195 48.0889 48.0991C48.6993 47.4887 49.1985 46.9954 49.5498 46.6558C49.6283 46.5798 49.7004 46.5138 49.7627 46.4546C49.8229 46.5102 49.8932 46.5717 49.9688 46.6431C50.3234 46.9779 50.8282 47.4684 51.4482 48.0786C52.6879 49.2987 54.379 50.9898 56.2275 52.854L62.5205 59.2065L59.5498 62.2046L59.5488 62.2065C58.6352 63.1359 57.7979 64.0285 57.1865 64.7192C56.8817 65.0637 56.6273 65.3641 56.4473 65.5962C56.3582 65.711 56.2802 65.8188 56.2217 65.9116C56.1929 65.9573 56.1621 66.0099 56.1367 66.0649C56.1197 66.1019 56.0684 66.2133 56.0684 66.353C56.0684 66.9108 56.3012 67.4347 56.6338 67.8179C56.9617 68.1955 57.4466 68.5004 57.9971 68.5005C58.2724 68.5005 58.541 68.3884 58.7812 68.2524C59.0325 68.1103 59.3158 67.9051 59.6348 67.6431C60.1137 67.2495 60.706 66.7009 61.4355 65.981L62.2129 65.2026V65.2017C63.0542 64.3448 63.8545 63.5684 64.4648 63.0083C64.771 62.7274 65.0241 62.5056 65.208 62.3569C65.2216 62.3459 65.2356 62.3366 65.248 62.3267C65.3741 62.4228 65.5405 62.5574 65.7373 62.73C66.1724 63.1116 66.7354 63.644 67.3252 64.2339L69.1025 66.0122L61.3359 73.8979C56.8861 78.4104 52.4615 82.9603 51.5156 83.9692L51.5088 83.9761C51.0702 84.46 50.6269 84.8808 50.2764 85.1724C50.1506 85.277 50.0402 85.3594 49.9512 85.4224C49.9492 85.4206 49.9473 85.4183 49.9453 85.4165Z" fill="white" stroke="white" stroke-width="1.0988"/>
<path d="M48.4551 75.4878C49.3157 76.3483 50.4397 76.1387 51.0967 75.5347C51.4241 75.2335 51.6663 74.8139 51.7178 74.3384C51.7706 73.8494 51.6164 73.3445 51.2266 72.9126L51.2256 72.9136C50.867 72.5071 50.4432 72.1509 49.9131 72.1362C49.3712 72.1214 48.9426 72.4672 48.5947 72.8481L48.5938 72.8491C48.2348 73.2441 47.981 73.6898 47.9395 74.1704C47.896 74.6745 48.0933 75.1261 48.4551 75.4878Z" fill="white" stroke="white" stroke-width="1.0988"/>
</svg>
