<svg width="100" height="100" viewBox="0 0 100 100" fill="none" xmlns="http://www.w3.org/2000/svg">
<path d="M21.3882 62.0142L22.2964 61.5435L22.3071 61.5386C22.7498 61.2978 23.2057 61.008 23.4351 60.5728C23.6988 60.0721 23.5942 59.5429 23.3228 59.0229C23.0568 58.5136 22.5789 57.9066 21.897 57.1519C21.2079 56.3892 20.2774 55.4405 19.0786 54.2417L15.0776 50.2407L21.3687 43.8892C25.0368 40.1896 32.9986 32.1033 39.0483 25.9282C42.0721 22.8574 44.8527 20.0613 46.896 18.0337C47.9179 17.0196 48.7539 16.1993 49.3433 15.6333C49.6039 15.383 49.8148 15.1859 49.9702 15.0435C49.9773 15.0495 49.9853 15.0547 49.9927 15.061C50.2006 15.2387 50.4881 15.5007 50.8364 15.8315C51.5314 16.4916 52.4508 17.4039 53.436 18.4048C55.3926 20.4557 63.1931 28.4439 70.8022 36.147C74.5938 40.0168 78.0557 43.5653 80.5776 46.1655C81.839 47.466 82.865 48.529 83.5786 49.2759C83.9355 49.6494 84.2132 49.9421 84.4028 50.146C84.4138 50.1578 84.4238 50.17 84.4341 50.1812C84.4201 50.1993 84.406 50.2196 84.3901 50.2397C84.2008 50.4796 83.9129 50.8139 83.5454 51.2222C82.8123 52.0367 81.7845 53.1198 80.644 54.2759V54.2769C79.4809 55.4401 78.4175 56.5485 77.6362 57.4009C77.2458 57.8268 76.9229 58.1927 76.6909 58.4702C76.5757 58.6081 76.4777 58.7298 76.4048 58.8296C76.3686 58.8791 76.3336 58.9305 76.3042 58.979C76.2834 59.0133 76.233 59.0968 76.2075 59.1987L76.2056 59.2085C76.0649 59.8184 76.2817 60.4181 76.6274 60.8452C76.9723 61.2711 77.5095 61.6049 78.1196 61.605C78.4307 61.605 78.7362 61.4608 79.0239 61.2778C79.3266 61.0854 79.6909 60.7964 80.1372 60.4019C81.0319 59.611 82.3223 58.336 84.2173 56.394L85.3433 55.2329C86.4039 54.1258 87.2666 53.1824 87.9126 52.4292C88.3425 51.928 88.6827 51.503 88.9224 51.1655C89.0419 50.9973 89.143 50.8424 89.2183 50.7046C89.2836 50.5849 89.3587 50.4263 89.3823 50.2603H89.3833C89.3835 50.259 89.3831 50.2576 89.3833 50.2563C89.3837 50.2534 89.3849 50.2505 89.3853 50.2476H89.3833C89.412 50.0346 89.3598 49.8342 89.2866 49.6616C89.2109 49.4831 89.0944 49.2892 88.9438 49.0757C88.6423 48.6481 88.1503 48.0648 87.4038 47.2495C85.906 45.6138 83.3184 42.9737 79.0112 38.6353L79.0122 38.6343C73.3399 32.8993 65.2538 24.6896 61.0542 20.396L61.0552 20.395C56.0745 15.2734 53.5052 12.6417 52.1235 11.2915C51.4384 10.622 51.0226 10.2439 50.7397 10.0347C50.5959 9.92829 50.4601 9.84572 50.3198 9.79346C50.1636 9.73531 50.0356 9.72803 49.9409 9.72803C49.7966 9.72809 49.6871 9.78569 49.6675 9.79541C49.6249 9.8165 49.5861 9.83968 49.5571 9.85889C49.4979 9.89825 49.4318 9.94894 49.3638 10.0034C49.2252 10.1145 49.0422 10.2724 48.8247 10.4673C48.388 10.8587 47.7874 11.4208 47.0688 12.1099C45.6303 13.4894 43.7067 15.3898 41.6509 17.4771C25.3546 34.0084 17.4429 42.0299 13.6577 46.0034C11.777 47.9777 10.884 48.9835 10.4937 49.5454C10.3111 49.8082 10.1562 50.0846 10.1616 50.3794C10.1648 50.5472 10.2184 50.6763 10.269 50.7671C10.2913 50.8069 10.3137 50.8427 10.3257 50.8608C10.3404 50.8831 10.346 50.89 10.3501 50.897H10.3511C10.4055 50.9929 10.4892 51.1006 10.5581 51.1851C10.6511 51.299 10.7747 51.4419 10.9224 51.6089C11.2185 51.9438 11.6248 52.3882 12.1099 52.9087C12.5953 53.4295 13.1621 54.0291 13.7798 54.6772L15.7563 56.7358L20.7397 61.9067L21.0239 62.2017L21.3882 62.0142Z" fill="#173FE1" stroke="#173FE1" stroke-width="1.0988"/>
<path d="M49.8647 90.5317C50.0973 90.5759 50.308 90.5375 50.4907 90.436L50.4897 90.4351C50.5738 90.3888 50.6636 90.3195 50.7349 90.2612C50.8179 90.1933 50.9179 90.1065 51.0317 90.0044C51.2602 89.7995 51.5587 89.5201 51.9146 89.1792C52.6271 88.4965 53.5827 87.5555 54.6958 86.4438C56.9229 84.2197 59.7896 81.3044 62.6235 78.3882C65.4574 75.472 68.261 72.553 70.3628 70.3208C71.4133 69.2051 72.2907 68.2584 72.9097 67.5688C73.2184 67.2249 73.4667 66.9404 73.6411 66.729C73.7276 66.6242 73.8016 66.53 73.8569 66.4526C73.8841 66.4146 73.9133 66.3724 73.938 66.3296C73.9487 66.311 73.9918 66.2339 74.0151 66.1313H74.0171C74.0186 66.1246 74.0187 66.1176 74.02 66.1108C74.0216 66.1026 74.0247 66.094 74.0259 66.0854H74.0239C74.0729 65.798 73.9639 65.5196 73.8638 65.3218C73.744 65.0853 73.5609 64.8157 73.3286 64.5161C72.8616 63.914 72.1369 63.1204 71.146 62.1138L71.147 62.1128C70.3678 61.318 69.6611 60.5646 69.1519 59.9897C68.8967 59.7017 68.6963 59.4643 68.562 59.2915C68.5544 59.2817 68.5475 59.2713 68.5405 59.2622C68.5584 59.2378 68.5763 59.2099 68.5981 59.1812C68.7542 58.976 68.9862 58.695 69.2808 58.356C69.7214 57.8487 70.2909 57.2237 70.9292 56.5483L71.5884 55.8579L71.5913 55.855C72.538 54.8609 73.3711 53.9258 73.9702 53.1909C74.2689 52.8246 74.5167 52.5 74.6919 52.2388C74.7789 52.109 74.8549 51.9843 74.9116 51.8716C74.9554 51.7846 75.0346 51.6175 75.0347 51.4331C75.0347 51.1558 74.9377 50.8843 74.8247 50.6606C74.7076 50.4291 74.5497 50.2039 74.3774 50.0063C74.2057 49.8094 74.007 49.625 73.7983 49.4858C73.6032 49.3558 73.3364 49.2223 73.0435 49.2222C72.9342 49.2222 72.8497 49.2542 72.8198 49.2661C72.7799 49.2821 72.7466 49.3006 72.7231 49.314C72.6755 49.3411 72.6283 49.3731 72.5874 49.4028C72.5035 49.4639 72.4008 49.5466 72.2866 49.6431C72.0561 49.8379 71.7477 50.1148 71.3853 50.4497C70.6587 51.121 69.6984 52.042 68.6772 53.0474L65.3687 56.356L58.3286 49.1372H58.3276C55.7258 46.4727 53.8145 44.5608 52.4927 43.3179C51.8332 42.6978 51.3107 42.235 50.9175 41.9263C50.722 41.7728 50.5458 41.6469 50.3921 41.5581C50.3153 41.5138 50.2327 41.4719 50.1479 41.4409C50.0767 41.4149 49.9707 41.3865 49.8481 41.3882V41.3862C49.8423 41.3862 49.8364 41.388 49.8306 41.3882C49.8244 41.3884 49.8182 41.3868 49.812 41.3872V41.3892C49.6924 41.3954 49.5903 41.429 49.5239 41.4565C49.4426 41.4903 49.3616 41.5346 49.2847 41.5815C49.1306 41.6756 48.9503 41.8075 48.7485 41.9683C48.3428 42.2916 47.8045 42.77 47.1333 43.3999C45.7881 44.6623 43.8765 46.5657 41.3677 49.1372L34.3569 56.3267L31.0522 53.0493C30.0445 52.0416 29.0748 51.1187 28.3306 50.4458C27.9591 50.1099 27.6384 49.8314 27.396 49.6353C27.2762 49.5383 27.1674 49.4549 27.0767 49.3931C27.0321 49.3627 26.981 49.3301 26.9292 49.3032C26.9033 49.2898 26.8678 49.2728 26.8267 49.2583C26.792 49.2461 26.7169 49.2222 26.6216 49.2222C26.3322 49.2222 26.0699 49.3342 25.8618 49.4683C25.6496 49.6051 25.4579 49.788 25.2974 49.9868C24.9872 50.3711 24.7241 50.905 24.7241 51.4331C24.7242 51.6006 24.7791 51.7535 24.8286 51.8657C24.8822 51.9874 24.9546 52.1154 25.0386 52.2456C25.2069 52.5066 25.4485 52.8211 25.7505 53.1812C26.3564 53.9034 27.2459 54.8561 28.3931 56.019L28.396 56.022L31.5483 59.1753L28.8657 61.8579L28.8628 61.8618C27.9643 62.7761 27.193 63.6107 26.6431 64.269C26.3691 64.597 26.1416 64.8906 25.98 65.1343C25.8996 65.2555 25.8282 65.3752 25.7749 65.4878C25.7291 65.5845 25.6646 65.7409 25.6646 65.9146C25.6646 66.0307 25.699 66.1239 25.7163 66.1675C25.7375 66.2208 25.7628 66.2705 25.7866 66.312C25.8345 66.3956 25.8985 66.4879 25.9692 66.5845C26.1123 66.7797 26.3177 67.0339 26.5786 67.3394C27.1023 67.9525 27.8737 68.805 28.8726 69.8745C30.8719 72.0152 33.7993 75.0443 37.5151 78.8071C42.8075 84.1935 45.7554 87.1656 47.4507 88.7505C48.2918 89.5368 48.8553 90.0101 49.2573 90.2651C49.4583 90.3926 49.6593 90.4927 49.8647 90.5317ZM49.9458 85.4165C49.784 85.2708 49.5559 85.0573 49.269 84.7827C48.6961 84.2343 47.9008 83.455 46.9575 82.52C45.0716 80.6507 42.5997 78.1653 40.1421 75.6724C37.6845 73.1796 35.2427 70.6804 33.4155 68.7837C32.5018 67.8352 31.7433 67.039 31.2144 66.4702C30.9755 66.2134 30.7859 66.0052 30.6509 65.8521C30.7486 65.7303 30.8779 65.576 31.0366 65.397C31.4273 64.9565 31.9685 64.385 32.5581 63.7954L34.3618 61.9917L37.3276 64.9839L37.3296 64.9858C38.2607 65.9169 39.1636 66.7651 39.8774 67.3833C40.2331 67.6913 40.5492 67.9489 40.8022 68.1323C40.9277 68.2232 41.0485 68.3038 41.1567 68.3638C41.2107 68.3937 41.2713 68.4238 41.3345 68.4478C41.3899 68.4687 41.4876 68.5004 41.604 68.5005L41.8062 68.4868C42.2713 68.4238 42.7035 68.1536 43.0142 67.8511C43.3683 67.5062 43.6899 66.9972 43.6899 66.4468C43.6899 66.3249 43.6533 66.2246 43.6333 66.1743C43.6091 66.1136 43.5788 66.0552 43.5493 66.0034C43.49 65.8992 43.4112 65.7808 43.3208 65.6567C43.1384 65.4065 42.8808 65.0906 42.5728 64.7329C41.9549 64.0154 41.1075 63.1036 40.1753 62.1714L37.2046 59.2026L43.4077 52.8511H43.4087C45.2099 51.0029 46.869 49.3195 48.0894 48.0991C48.6998 47.4887 49.199 46.9954 49.5503 46.6558C49.6288 46.5798 49.7009 46.5138 49.7632 46.4546C49.8234 46.5102 49.8936 46.5717 49.9692 46.6431C50.3239 46.9779 50.8287 47.4684 51.4487 48.0786C52.6884 49.2987 54.3795 50.9898 56.228 52.854L62.521 59.2065L59.5503 62.2046L59.5493 62.2065C58.6357 63.1359 57.7984 64.0285 57.187 64.7192C56.8822 65.0637 56.6278 65.3641 56.4478 65.5962C56.3587 65.711 56.2807 65.8188 56.2222 65.9116C56.1934 65.9573 56.1626 66.0099 56.1372 66.0649C56.1202 66.1019 56.0688 66.2133 56.0688 66.353C56.0689 66.9108 56.3017 67.4347 56.6343 67.8179C56.9622 68.1955 57.4471 68.5004 57.9976 68.5005C58.2729 68.5005 58.5414 68.3884 58.7817 68.2524C59.033 68.1103 59.3163 67.9051 59.6353 67.6431C60.1142 67.2495 60.7064 66.7009 61.436 65.981L62.2134 65.2026V65.2017C63.0547 64.3448 63.855 63.5684 64.4653 63.0083C64.7714 62.7274 65.0246 62.5056 65.2085 62.3569C65.2221 62.3459 65.236 62.3366 65.2485 62.3267C65.3746 62.4228 65.541 62.5574 65.7378 62.73C66.1729 63.1116 66.7358 63.644 67.3257 64.2339L69.103 66.0122L61.3364 73.8979C56.8866 78.4104 52.462 82.9603 51.5161 83.9692L51.5093 83.9761C51.0707 84.46 50.6274 84.8808 50.2769 85.1724C50.1511 85.277 50.0407 85.3594 49.9517 85.4224C49.9497 85.4206 49.9478 85.4183 49.9458 85.4165Z" fill="#173FE1" stroke="#173FE1" stroke-width="1.0988"/>
<path d="M48.4556 75.4878C49.3161 76.3483 50.4402 76.1387 51.0972 75.5347C51.4246 75.2335 51.6668 74.8139 51.7183 74.3384C51.7711 73.8494 51.6168 73.3445 51.2271 72.9126L51.2261 72.9136C50.8675 72.5071 50.4437 72.1509 49.9136 72.1362C49.3717 72.1214 48.9431 72.4672 48.5952 72.8481L48.5942 72.8491C48.2353 73.2441 47.9815 73.6898 47.9399 74.1704C47.8965 74.6745 48.0938 75.1261 48.4556 75.4878Z" fill="#173FE1" stroke="#173FE1" stroke-width="1.0988"/>
</svg>
