<svg width="249" height="44" viewBox="0 0 249 44" fill="none" xmlns="http://www.w3.org/2000/svg">
<path d="M5.3584 27.4033L5.77246 27.1895L5.77734 27.1875C5.97864 27.078 6.18567 26.9459 6.29004 26.748C6.41003 26.5203 6.36267 26.2795 6.23926 26.043C6.11824 25.8112 5.90014 25.5348 5.58984 25.1914C5.27629 24.8444 4.85305 24.4126 4.30762 23.8672L2.4873 22.0469L5.34961 19.1562C7.0187 17.4729 10.6417 13.7933 13.3945 10.9834C14.7705 9.58604 16.0361 8.31326 16.9658 7.39062C17.4306 6.92939 17.811 6.55635 18.0791 6.29883C18.1975 6.18512 18.2936 6.09505 18.3643 6.03027C18.3676 6.03307 18.3716 6.03516 18.375 6.03809C18.4696 6.11892 18.6004 6.23821 18.7588 6.38867C19.075 6.68903 19.494 7.1041 19.9424 7.55957C20.8329 8.49301 24.3815 12.1278 27.8438 15.6328L30.2842 18.1289C31.0374 18.9008 31.719 19.6006 32.293 20.1924C32.8668 20.784 33.3335 21.2676 33.6582 21.6074C33.8205 21.7773 33.9469 21.9112 34.0332 22.0039C34.0381 22.0091 34.0423 22.0146 34.0469 22.0195C34.0406 22.0277 34.0345 22.0369 34.0273 22.0459C33.9412 22.155 33.8098 22.3073 33.6426 22.4932C33.309 22.8638 32.8411 23.3569 32.3223 23.8828V23.8838C31.7932 24.4129 31.3095 24.917 30.9541 25.3047C30.7764 25.4985 30.629 25.6647 30.5234 25.791C30.4709 25.8538 30.4268 25.9096 30.3936 25.9551C30.3771 25.9776 30.361 26.0004 30.3477 26.0225C30.3382 26.038 30.3153 26.0766 30.3037 26.123L30.3027 26.127C30.2387 26.4045 30.3378 26.6777 30.4951 26.8721C30.652 27.0658 30.8963 27.2177 31.1738 27.2178C31.3155 27.2178 31.455 27.1517 31.5859 27.0684C31.7236 26.9808 31.8889 26.8493 32.0918 26.6699C32.4989 26.3101 33.0861 25.7302 33.9482 24.8467C34.6704 24.1102 35.2379 23.499 35.6299 23.042C35.8254 22.814 35.9808 22.6213 36.0898 22.4678C36.1442 22.3912 36.1904 22.3205 36.2246 22.2578C36.2543 22.2035 36.287 22.1311 36.2979 22.0557H36.2988V22.0527C36.299 22.0517 36.2997 22.0508 36.2998 22.0498H36.2988C36.312 21.9527 36.2892 21.8609 36.2559 21.7822C36.2214 21.7012 36.1679 21.6135 36.0996 21.5166C35.9624 21.322 35.7381 21.0565 35.3984 20.6855C35.0577 20.3134 34.5931 19.8267 33.9688 19.1865L31.5801 16.7646C28.9991 14.1551 25.3193 10.4206 23.4082 8.4668L23.4092 8.46582C21.143 6.13551 19.9735 4.93769 19.3447 4.32324C19.033 4.01859 18.8436 3.84618 18.7148 3.75098C18.6494 3.70258 18.5873 3.66537 18.5234 3.6416C18.4525 3.61521 18.3946 3.61133 18.3516 3.61133C18.2857 3.61133 18.2354 3.63723 18.2266 3.6416C18.2072 3.65118 18.1899 3.66218 18.1768 3.6709C18.1497 3.68883 18.1199 3.71247 18.0889 3.7373C18.0258 3.78783 17.9426 3.8596 17.8438 3.94824C17.6451 4.12633 17.3718 4.38186 17.0449 4.69531C16.7176 5.00923 16.3346 5.38249 15.917 5.7959L14.5791 7.1377C7.1636 14.6602 3.56322 18.3101 1.84082 20.1182C0.984905 21.0167 0.578962 21.4748 0.401367 21.7305C0.318352 21.85 0.247533 21.9753 0.25 22.1094C0.251413 22.1858 0.275766 22.2448 0.298828 22.2861C0.308891 22.3042 0.319721 22.3199 0.325195 22.3281C0.332034 22.3385 0.334039 22.3425 0.335938 22.3457H0.337891C0.362609 22.3889 0.399614 22.4375 0.430664 22.4756C0.472983 22.5274 0.529461 22.5929 0.59668 22.6689C0.731421 22.8213 0.915982 23.0239 1.13672 23.2607C1.57846 23.7347 2.1679 24.3525 2.7959 25.002L5.06348 27.3555L5.19336 27.4893L5.3584 27.4033Z" fill="#1E74FF" stroke="#1E74FF" stroke-width="0.5"/>
<path d="M18.3164 40.3809C18.4222 40.4009 18.5184 40.383 18.6016 40.3369L18.6006 40.3359C18.6389 40.3149 18.6804 40.2844 18.7129 40.2578C18.7507 40.2269 18.7959 40.1871 18.8477 40.1406C18.9516 40.0474 19.088 39.9198 19.25 39.7646C19.5742 39.454 20.0092 39.0262 20.5156 38.5205C21.529 37.5085 22.8326 36.1815 24.1221 34.8545C25.4116 33.5275 26.6881 32.1994 27.6445 31.1836C28.1223 30.6762 28.5211 30.2454 28.8027 29.9316C28.9433 29.7751 29.0564 29.645 29.1357 29.5488C29.175 29.5012 29.2092 29.459 29.2344 29.4238C29.2468 29.4065 29.2593 29.3867 29.2705 29.3672C29.2754 29.3588 29.294 29.3238 29.3047 29.2773H29.3076C29.3083 29.2742 29.307 29.2707 29.3076 29.2676C29.3083 29.2639 29.311 29.2606 29.3115 29.2568H29.3086C29.3312 29.1259 29.2829 28.9993 29.2373 28.9092C29.1828 28.8016 29.0998 28.6783 28.9941 28.542C28.8348 28.3365 28.6091 28.0821 28.3164 27.7744L28.001 27.4482C27.6465 27.0867 27.3254 26.7439 27.0938 26.4824C26.9775 26.3512 26.8854 26.2437 26.8242 26.165C26.8208 26.1607 26.8176 26.1564 26.8145 26.1523C26.8228 26.141 26.8316 26.1277 26.8418 26.1143C26.9128 26.0209 27.0185 25.8934 27.1523 25.7393C27.286 25.5853 27.4454 25.4073 27.623 25.2148L28.2021 24.6025L28.2031 24.6016C28.634 24.1492 29.0135 23.7231 29.2861 23.3887C29.422 23.222 29.5345 23.0739 29.6143 22.9551C29.6538 22.8962 29.6881 22.8393 29.7139 22.7881C29.7338 22.7484 29.7695 22.6727 29.7695 22.5889C29.7695 22.4627 29.7262 22.3391 29.6748 22.2373C29.6216 22.132 29.55 22.0293 29.4717 21.9395C29.3935 21.8498 29.302 21.7665 29.207 21.7031C29.1183 21.644 28.9974 21.5831 28.8643 21.583C28.8149 21.583 28.7766 21.597 28.7627 21.6025C28.7444 21.6098 28.7285 21.6179 28.7178 21.624C28.6961 21.6364 28.6748 21.6515 28.6562 21.665C28.6181 21.6928 28.5714 21.7306 28.5195 21.7744C28.4146 21.8631 28.2743 21.9893 28.1094 22.1416C27.7788 22.447 27.3415 22.8658 26.877 23.3232L26.876 23.3252L25.3711 24.8291L22.168 21.5439C20.9841 20.3316 20.1142 19.4621 19.5127 18.8965C19.2126 18.6143 18.9749 18.4032 18.7959 18.2627C18.707 18.1929 18.6265 18.1361 18.5566 18.0957C18.5217 18.0755 18.4839 18.0561 18.4453 18.042C18.413 18.0302 18.3651 18.0188 18.3096 18.0195V18.0176C18.3077 18.0176 18.3055 18.0185 18.3037 18.0186C18.3002 18.0187 18.2966 18.0173 18.293 18.0176V18.0205C18.2386 18.0233 18.1923 18.0373 18.1621 18.0498C18.1251 18.0652 18.0877 18.0851 18.0527 18.1064C17.9827 18.1492 17.9003 18.2091 17.8086 18.2822C17.624 18.4294 17.3794 18.6472 17.0742 18.9336C16.4621 19.508 15.5918 20.3738 14.4502 21.5439L11.2598 24.8154L9.75586 23.3242C9.29734 22.8657 8.85616 22.4458 8.51758 22.1396C8.34855 21.9868 8.20308 21.8598 8.09277 21.7705C8.03822 21.7264 7.98857 21.6883 7.94727 21.6602C7.92701 21.6464 7.90342 21.6323 7.87988 21.6201C7.86818 21.614 7.85251 21.6062 7.83398 21.5996C7.8183 21.5941 7.78382 21.583 7.74023 21.583C7.60858 21.583 7.4892 21.6333 7.39453 21.6943C7.29791 21.7566 7.21077 21.8402 7.1377 21.9307C6.99655 22.1055 6.87695 22.3486 6.87695 22.5889C6.87695 22.6651 6.9013 22.735 6.92383 22.7861C6.94825 22.8415 6.98229 22.8997 7.02051 22.959C7.09707 23.0776 7.20655 23.2202 7.34375 23.3838C7.61946 23.7124 8.02476 24.1465 8.54688 24.6758L8.54785 24.6768L9.98242 26.1123L8.76172 27.333L8.75977 27.334C8.35093 27.75 8.00027 28.1301 7.75 28.4297C7.62541 28.5788 7.52176 28.7124 7.44824 28.8232C7.41165 28.8784 7.37874 28.9331 7.35449 28.9844C7.33367 29.0284 7.30469 29.0997 7.30469 29.1787C7.30475 29.2315 7.32025 29.2742 7.32812 29.2939C7.33776 29.3181 7.34955 29.3405 7.36035 29.3594C7.38212 29.3974 7.41115 29.4395 7.44336 29.4834C7.50847 29.5722 7.60199 29.6881 7.7207 29.8271C7.95899 30.1062 8.31021 30.4939 8.76465 30.9805C9.67434 31.9545 11.0057 33.3329 12.6963 35.0449C15.1049 37.4963 16.4473 38.8481 17.2188 39.5693C17.6015 39.9272 17.8571 40.1437 18.04 40.2598C18.1314 40.3177 18.2231 40.3631 18.3164 40.3809ZM18.3535 38.0527C18.2799 37.9865 18.1762 37.8894 18.0459 37.7646C17.7852 37.5151 17.4234 37.1598 16.9941 36.7344C16.136 35.8838 15.0109 34.7535 13.8926 33.6191C12.7742 32.4847 11.6625 31.3475 10.8311 30.4844C10.4154 30.0529 10.0708 29.6904 9.83008 29.4316C9.7216 29.315 9.63564 29.22 9.57422 29.1504C9.61861 29.095 9.67694 29.0246 9.74902 28.9434C9.92684 28.7429 10.1731 28.4822 10.4414 28.2139L11.2627 27.3936L12.6113 28.7549L12.6123 28.7559C13.036 29.1796 13.4476 29.5654 13.7725 29.8467C13.9343 29.9869 14.0782 30.1041 14.1934 30.1875C14.2505 30.2289 14.3052 30.2657 14.3545 30.293C14.3791 30.3066 14.4067 30.3201 14.4355 30.3311C14.4607 30.3406 14.5048 30.3554 14.5576 30.3555L14.6494 30.3496C14.8613 30.3211 15.0577 30.1973 15.1992 30.0596C15.3604 29.9027 15.5068 29.6714 15.5068 29.4209C15.5068 29.3655 15.4906 29.3198 15.4814 29.2969C15.4704 29.2692 15.4568 29.2423 15.4434 29.2188C15.4164 29.1714 15.38 29.1179 15.3389 29.0615C15.2559 28.9477 15.1392 28.8034 14.999 28.6406C14.7179 28.3141 14.3315 27.8998 13.9072 27.4756L12.5557 26.124L15.3789 23.2344L16.543 22.0459C16.9035 21.68 17.2312 21.3499 17.5088 21.0723C17.7866 20.7945 18.014 20.5696 18.1738 20.415C18.2096 20.3805 18.2422 20.3502 18.2705 20.3232C18.298 20.3486 18.3298 20.3766 18.3643 20.4092C18.5257 20.5616 18.7558 20.7847 19.0381 21.0625C19.6022 21.6177 20.3717 22.3871 21.2129 23.2354L24.0752 26.126L22.7246 27.4902L22.7236 27.4912C22.3079 27.9142 21.9266 28.3204 21.6484 28.6348C21.5099 28.7913 21.3944 28.9276 21.3125 29.0332C21.2721 29.0853 21.2366 29.1346 21.21 29.1768C21.1968 29.1976 21.1825 29.2219 21.1709 29.2471C21.1632 29.2639 21.1397 29.3144 21.1396 29.3779C21.1396 29.6318 21.246 29.8706 21.3975 30.0449C21.5467 30.2167 21.7671 30.3555 22.0176 30.3555C22.1428 30.3555 22.2647 30.304 22.374 30.2422C22.4884 30.1775 22.6176 30.0841 22.7627 29.9648C23.0533 29.726 23.4355 29.3617 23.9355 28.8545H23.9365C24.3193 28.4646 24.6832 28.1113 24.9609 27.8564C25.1002 27.7286 25.2152 27.6272 25.2988 27.5596C25.3049 27.5547 25.3109 27.5503 25.3164 27.5459C25.3738 27.5897 25.4502 27.6507 25.54 27.7295C25.738 27.9032 25.9943 28.1457 26.2627 28.4141L27.0703 29.2236L23.5371 32.8115C21.5123 34.8649 19.4988 36.9354 19.0684 37.3945L19.0654 37.3975C18.8658 37.6177 18.6635 37.8087 18.5039 37.9414C18.4463 37.9893 18.3951 38.026 18.3545 38.0547L18.3535 38.0527Z" fill="#1E74FF" stroke="#1E74FF" stroke-width="0.5"/>
<path d="M17.6758 33.5342C18.0674 33.9258 18.579 33.8305 18.8779 33.5557C19.0267 33.4187 19.1368 33.2279 19.1602 33.0117C19.1841 32.79 19.1135 32.5623 18.9375 32.3662L18.9385 32.3652C18.7749 32.1794 18.5811 32.0164 18.3389 32.0098C18.0925 32.003 17.8975 32.1598 17.7393 32.333V32.334C17.5758 32.5138 17.4603 32.7168 17.4414 32.9355C17.4217 33.1648 17.5113 33.3697 17.6758 33.5342Z" fill="#1E74FF" stroke="#1E74FF" stroke-width="0.5"/>
<path d="M50.6361 35V8.81818H60.4543C62.4656 8.81818 64.1531 9.16761 65.5168 9.86648C66.8889 10.5653 67.9245 11.5455 68.6233 12.8068C69.3307 14.0597 69.6844 15.5213 69.6844 17.1918C69.6844 18.8707 69.3264 20.3281 68.6105 21.5639C67.9031 22.7912 66.8591 23.7415 65.4784 24.4148C64.0977 25.0795 62.4017 25.4119 60.3904 25.4119H53.3975V21.4744H59.7512C60.9273 21.4744 61.8904 21.3125 62.6404 20.9886C63.3904 20.6562 63.9443 20.1747 64.3023 19.544C64.6688 18.9048 64.852 18.1207 64.852 17.1918C64.852 16.2628 64.6688 15.4702 64.3023 14.8139C63.9358 14.1491 63.3776 13.6463 62.6276 13.3054C61.8776 12.956 60.9102 12.7812 59.7256 12.7812H55.379V35H50.6361ZM64.1617 23.1364L70.6432 35H65.3506L58.9841 23.1364H64.1617ZM80.6897 35.3835C78.7721 35.3835 77.1102 34.9616 75.7039 34.1179C74.2977 33.2741 73.2068 32.0937 72.4312 30.5767C71.6641 29.0597 71.2806 27.2869 71.2806 25.2585C71.2806 23.2301 71.6641 21.4531 72.4312 19.9276C73.2068 18.402 74.2977 17.2173 75.7039 16.3736C77.1102 15.5298 78.7721 15.108 80.6897 15.108C82.6073 15.108 84.2693 15.5298 85.6755 16.3736C87.0818 17.2173 88.1684 18.402 88.9354 19.9276C89.711 21.4531 90.0988 23.2301 90.0988 25.2585C90.0988 27.2869 89.711 29.0597 88.9354 30.5767C88.1684 32.0937 87.0818 33.2741 85.6755 34.1179C84.2693 34.9616 82.6073 35.3835 80.6897 35.3835ZM80.7153 31.6761C81.755 31.6761 82.6244 31.3906 83.3232 30.8196C84.0221 30.2401 84.542 29.4645 84.8829 28.4929C85.2323 27.5213 85.407 26.4389 85.407 25.2457C85.407 24.044 85.2323 22.9574 84.8829 21.9858C84.542 21.0057 84.0221 20.2259 83.3232 19.6463C82.6244 19.0668 81.755 18.777 80.7153 18.777C79.6499 18.777 78.7636 19.0668 78.0562 19.6463C77.3573 20.2259 76.8332 21.0057 76.4837 21.9858C76.1428 22.9574 75.9724 24.044 75.9724 25.2457C75.9724 26.4389 76.1428 27.5213 76.4837 28.4929C76.8332 29.4645 77.3573 30.2401 78.0562 30.8196C78.7636 31.3906 79.6499 31.6761 80.7153 31.6761ZM92.5867 35V15.3636H97.01V18.7003H97.2401C97.6492 17.5753 98.3268 16.6974 99.2728 16.0668C100.219 15.4276 101.348 15.108 102.661 15.108C103.99 15.108 105.111 15.4318 106.023 16.0795C106.943 16.7187 107.591 17.5923 107.966 18.7003H108.171C108.605 17.6094 109.338 16.7401 110.369 16.0923C111.409 15.4361 112.641 15.108 114.064 15.108C115.871 15.108 117.345 15.679 118.487 16.821C119.629 17.9631 120.2 19.6293 120.2 21.8196V35H115.56V22.5355C115.56 21.3168 115.236 20.4261 114.588 19.8636C113.94 19.2926 113.148 19.0071 112.21 19.0071C111.094 19.0071 110.22 19.3565 109.59 20.0554C108.967 20.7457 108.656 21.6449 108.656 22.7528V35H104.118V22.3438C104.118 21.3295 103.811 20.5199 103.198 19.9148C102.592 19.3097 101.8 19.0071 100.82 19.0071C100.155 19.0071 99.5498 19.1776 99.0043 19.5185C98.4589 19.8509 98.0242 20.3239 97.7003 20.9375C97.3765 21.5426 97.2145 22.25 97.2145 23.0597V35H92.5867ZM146.07 17.652H141.289C141.153 16.8679 140.901 16.1733 140.535 15.5682C140.168 14.9545 139.712 14.4347 139.167 14.0085C138.621 13.5824 137.999 13.2628 137.3 13.0497C136.61 12.8281 135.864 12.7173 135.063 12.7173C133.64 12.7173 132.379 13.0753 131.279 13.7912C130.18 14.4986 129.319 15.5384 128.697 16.9105C128.075 18.2741 127.764 19.9403 127.764 21.9091C127.764 23.9119 128.075 25.5994 128.697 26.9716C129.327 28.3352 130.188 29.3665 131.279 30.0653C132.379 30.7557 133.636 31.1009 135.05 31.1009C135.835 31.1009 136.568 30.9986 137.249 30.794C137.94 30.581 138.558 30.2699 139.103 29.8608C139.657 29.4517 140.121 28.9489 140.496 28.3523C140.88 27.7557 141.144 27.0739 141.289 26.3068L146.07 26.3324C145.891 27.5767 145.504 28.7443 144.907 29.8352C144.319 30.9261 143.548 31.8892 142.593 32.7244C141.639 33.5511 140.522 34.1989 139.244 34.6676C137.965 35.1278 136.546 35.358 134.987 35.358C132.685 35.358 130.631 34.8253 128.825 33.7599C127.018 32.6946 125.595 31.1562 124.555 29.1449C123.515 27.1335 122.995 24.7216 122.995 21.9091C122.995 19.0881 123.519 16.6761 124.568 14.6733C125.616 12.6619 127.043 11.1236 128.85 10.0582C130.657 8.9929 132.702 8.46023 134.987 8.46023C136.444 8.46023 137.799 8.66477 139.052 9.07386C140.305 9.48295 141.421 10.0838 142.401 10.8764C143.381 11.6605 144.187 12.6236 144.818 13.7656C145.457 14.8991 145.874 16.1946 146.07 17.652ZM157.335 35.3835C155.417 35.3835 153.755 34.9616 152.349 34.1179C150.943 33.2741 149.852 32.0937 149.076 30.5767C148.309 29.0597 147.925 27.2869 147.925 25.2585C147.925 23.2301 148.309 21.4531 149.076 19.9276C149.852 18.402 150.943 17.2173 152.349 16.3736C153.755 15.5298 155.417 15.108 157.335 15.108C159.252 15.108 160.914 15.5298 162.32 16.3736C163.727 17.2173 164.813 18.402 165.58 19.9276C166.356 21.4531 166.744 23.2301 166.744 25.2585C166.744 27.2869 166.356 29.0597 165.58 30.5767C164.813 32.0937 163.727 33.2741 162.32 34.1179C160.914 34.9616 159.252 35.3835 157.335 35.3835ZM157.36 31.6761C158.4 31.6761 159.269 31.3906 159.968 30.8196C160.667 30.2401 161.187 29.4645 161.528 28.4929C161.877 27.5213 162.052 26.4389 162.052 25.2457C162.052 24.044 161.877 22.9574 161.528 21.9858C161.187 21.0057 160.667 20.2259 159.968 19.6463C159.269 19.0668 158.4 18.777 157.36 18.777C156.295 18.777 155.408 19.0668 154.701 19.6463C154.002 20.2259 153.478 21.0057 153.129 21.9858C152.788 22.9574 152.617 24.044 152.617 25.2457C152.617 26.4389 152.788 27.5213 153.129 28.4929C153.478 29.4645 154.002 30.2401 154.701 30.8196C155.408 31.3906 156.295 31.6761 157.36 31.6761ZM173.859 23.4943V35H169.232V15.3636H173.655V18.7003H173.885C174.337 17.6009 175.057 16.7273 176.045 16.0795C177.043 15.4318 178.274 15.108 179.74 15.108C181.095 15.108 182.276 15.3977 183.281 15.9773C184.295 16.5568 185.08 17.3963 185.634 18.4957C186.196 19.5952 186.473 20.929 186.465 22.4972V35H181.837V23.2131C181.837 21.9006 181.496 20.8736 180.814 20.1321C180.141 19.3906 179.207 19.0199 178.014 19.0199C177.205 19.0199 176.484 19.1989 175.854 19.5568C175.232 19.9062 174.741 20.4134 174.384 21.0781C174.034 21.7429 173.859 22.5483 173.859 23.4943ZM205.249 20.554L201.03 21.0142C200.911 20.5881 200.702 20.1875 200.404 19.8125C200.114 19.4375 199.722 19.1349 199.228 18.9048C198.733 18.6747 198.128 18.5597 197.412 18.5597C196.449 18.5597 195.64 18.7685 194.983 19.1861C194.336 19.6037 194.016 20.1449 194.025 20.8097C194.016 21.3807 194.225 21.8452 194.651 22.2031C195.086 22.5611 195.801 22.8551 196.799 23.0852L200.148 23.8011C202.006 24.2017 203.387 24.8366 204.29 25.706C205.202 26.5753 205.662 27.7131 205.671 29.1193C205.662 30.3551 205.3 31.446 204.584 32.392C203.877 33.3295 202.892 34.0625 201.631 34.5909C200.37 35.1193 198.921 35.3835 197.284 35.3835C194.881 35.3835 192.946 34.8807 191.48 33.875C190.015 32.8608 189.141 31.4503 188.86 29.6435L193.373 29.2088C193.577 30.0952 194.012 30.7642 194.676 31.2159C195.341 31.6676 196.206 31.8935 197.272 31.8935C198.371 31.8935 199.253 31.6676 199.918 31.2159C200.591 30.7642 200.928 30.206 200.928 29.5412C200.928 28.9787 200.711 28.5142 200.276 28.1477C199.85 27.7812 199.185 27.5 198.282 27.304L194.932 26.6009C193.049 26.2088 191.655 25.5483 190.752 24.6193C189.848 23.6818 189.401 22.4972 189.409 21.0653C189.401 19.8551 189.729 18.8068 190.394 17.9205C191.067 17.0256 192 16.3352 193.194 15.8494C194.395 15.3551 195.78 15.108 197.348 15.108C199.65 15.108 201.461 15.598 202.782 16.5781C204.111 17.5582 204.934 18.8835 205.249 20.554ZM220.562 26.7415V15.3636H225.19V35H220.703V31.5099H220.499C220.055 32.6094 219.327 33.5085 218.312 34.2074C217.307 34.9062 216.067 35.2557 214.592 35.2557C213.305 35.2557 212.168 34.9702 211.179 34.3991C210.199 33.8196 209.432 32.9801 208.878 31.8807C208.324 30.7727 208.047 29.4347 208.047 27.8665V15.3636H212.675V27.1506C212.675 28.3949 213.016 29.3835 213.697 30.1165C214.379 30.8494 215.274 31.2159 216.382 31.2159C217.064 31.2159 217.724 31.0497 218.364 30.7173C219.003 30.3849 219.527 29.8906 219.936 29.2344C220.354 28.5696 220.562 27.7386 220.562 26.7415ZM233.137 8.81818V35H228.509V8.81818H233.137ZM246.261 15.3636V18.9432H234.973V15.3636H246.261ZM237.76 10.6591H242.388V29.0938C242.388 29.7159 242.481 30.1932 242.669 30.5256C242.865 30.8494 243.121 31.071 243.436 31.1903C243.751 31.3097 244.101 31.3693 244.484 31.3693C244.774 31.3693 245.038 31.348 245.277 31.3054C245.524 31.2628 245.712 31.2244 245.839 31.1903L246.619 34.8082C246.372 34.8935 246.018 34.9872 245.558 35.0895C245.106 35.1918 244.553 35.2514 243.896 35.2685C242.737 35.3026 241.693 35.1278 240.764 34.7443C239.835 34.3523 239.098 33.7472 238.553 32.929C238.016 32.1108 237.751 31.0881 237.76 29.8608V10.6591Z" fill="#171717"/>
</svg>
